<svg width="64" height="64" viewBox="0 0 64 64" fill="none" xmlns="http://www.w3.org/2000/svg">
<rect width="64" height="64" rx="10" fill="white"/>
<path d="M22.9873 17.7715C24.9183 17.7569 26.8501 17.7526 28.7811 17.7586C30.2346 17.7618 32.524 17.5574 33.7368 18.4093C35.3244 19.4349 34.6992 22.753 32.7653 22.9013C29.6377 23.141 26.552 22.529 23.3826 22.9446C23.3251 23.4871 23.3393 24.3908 23.3315 24.9617C24.9623 24.9996 26.5939 24.9866 28.224 24.9227C29.126 24.8956 31.0422 24.7898 31.832 24.9292C32.2131 24.9976 32.5666 25.1739 32.8504 25.4369C33.3153 25.8704 33.5878 26.4717 33.607 27.1069C33.6297 27.7219 33.4253 28.2865 33.0087 28.741C32.3544 29.4641 31.4588 29.4115 30.5688 29.4214C28.1758 29.448 25.7792 29.3884 23.3883 29.4841C23.4628 31.2273 22.9213 31.7639 24.9964 31.7171C27.4065 31.7125 29.9876 31.4086 32.392 31.2129C33.3898 31.1275 34.3117 30.9802 35.1328 31.6873C36.5308 32.8917 36.0284 35.6323 34.1704 36.0467C32.2593 36.4731 30.0664 36.6266 28.0942 36.6817C25.4896 36.7545 22.6552 37.006 20.0861 36.6008C19.6525 36.5283 19.16 36.1936 18.8357 35.908C17.2254 34.3242 17.8045 31.5253 17.5923 29.4645C17.5923 29.1411 17.5667 28.8091 17.5753 28.4862C17.6484 25.8075 17.417 23.0433 17.7917 20.3913C17.8669 19.8578 18.2303 19.2308 18.5922 18.8399C19.722 17.6188 21.4451 17.7969 22.9873 17.7715Z" fill="#FD6D5D"/>
<path fill-rule="evenodd" clip-rule="evenodd" d="M33.5948 37.8496C37.1524 37.7068 40.7752 38.0074 43.7467 40.2758C46.3774 42.2847 46.7175 46.3868 44.6403 48.9255C42.5993 51.4197 39.3254 51.9945 36.239 52.2817C32.8801 52.4114 28.4184 52.1991 25.7422 49.8848C24.5386 48.839 23.8034 47.3558 23.6997 45.7652C23.5862 44.0472 24.1554 42.3538 25.2838 41.0528C27.2965 38.7498 30.6908 38.0435 33.5948 37.8496ZM39.2704 43.422C37.9752 42.4432 35.2175 42.2448 33.6768 42.4559C32.3135 42.607 30.8656 42.8836 29.9224 43.9759C29.1773 44.839 29.5981 45.9562 30.4462 46.5484C31.989 47.625 34.3751 47.6663 36.167 47.5151C37.5928 47.3353 40.4208 46.8513 40.2151 44.8142C40.1583 44.2523 39.7054 43.7283 39.2704 43.422Z" fill="#FD6D5D"/>
<path d="M43.0912 17.6974C46.7964 17.5341 46.2194 20.7456 46.3351 23.2698C46.4941 26.7359 46.4387 30.1545 46.2691 33.6177C46.2336 34.3481 46.1641 35.2433 45.7667 35.8759C44.9101 37.2396 42.8768 37.4409 41.5994 36.5797C40.8436 36.065 40.6506 35.4076 40.4937 34.572C40.4391 33.1053 40.5008 31.2302 40.5079 29.7331C38.4136 29.6897 34.5452 30.4515 34.5452 27.0858C34.5459 23.7129 38.2057 24.3481 40.5285 24.3634C40.4604 21.8456 39.7755 18.09 43.0912 17.6974Z" fill="#FD6D5D"/>
<path d="M52.6789 13.3098L49.6495 15.8694M46.3203 13.8664L47.5492 10.0957" stroke="#FD6D5D" stroke-width="1.99681" stroke-linecap="round"/>
</svg>
