<svg width="64" height="64" viewBox="0 0 64 64" fill="none" xmlns="http://www.w3.org/2000/svg">
<rect width="64" height="64" rx="10" fill="white"/>
<path d="M17.5004 14.2094C19.8176 14.1919 22.1357 14.1867 24.453 14.1939C26.1971 14.1978 28.9444 13.9525 30.3998 14.9747C32.3049 16.2054 31.5546 20.1872 29.234 20.3651C25.4809 20.6528 21.778 19.9184 17.9747 20.4171C17.9057 21.0682 17.9228 22.1526 17.9134 22.8376C19.8704 22.8831 21.8283 22.8675 23.7845 22.7909C24.8669 22.7583 27.1662 22.6314 28.1141 22.7987C28.5714 22.8808 28.9955 23.0922 29.3361 23.4078C29.894 23.928 30.221 24.6496 30.244 25.4119C30.2712 26.1499 30.026 26.8274 29.5261 27.3727C28.7409 28.2405 27.6661 28.1774 26.5982 28.1893C23.7265 28.2212 20.8506 28.1497 17.9815 28.2645C18.071 30.3564 17.4212 31.0003 19.9113 30.9441C22.8034 30.9386 25.9007 30.5739 28.786 30.3391C29.9834 30.2366 31.0896 30.0598 32.075 30.9084C33.7526 32.3536 33.1497 35.6424 30.9202 36.1397C28.6267 36.6513 25.9953 36.8355 23.6286 36.9017C20.5032 36.989 17.1018 37.2907 14.019 36.8045C13.4986 36.7175 12.9076 36.3159 12.5184 35.9732C10.5861 34.0726 11.281 30.7139 11.0264 28.241C11.0264 27.8529 10.9957 27.4546 11.0059 27.0671C11.0937 23.8526 10.816 20.5355 11.2657 17.3532C11.356 16.713 11.792 15.9606 12.2263 15.4914C13.5821 14.0261 15.6498 14.2398 17.5004 14.2094Z" fill="#FD6D5D"/>
<path fill-rule="evenodd" clip-rule="evenodd" d="M30.2294 38.3031C34.4985 38.1317 38.8459 38.4925 42.4116 41.2145C45.5685 43.6252 45.9766 48.5478 43.484 51.5942C41.0348 54.5873 37.1061 55.277 33.4024 55.6217C29.3717 55.7772 24.0177 55.5226 20.8062 52.7454C19.3619 51.4904 18.4797 49.7105 18.3553 47.8018C18.219 45.7402 18.9021 43.7081 20.2562 42.1469C22.6714 39.3833 26.7446 38.5358 30.2294 38.3031ZM37.0401 44.99C35.4858 43.8155 32.1766 43.5773 30.3278 43.8306C28.6918 44.012 26.9543 44.3439 25.8225 45.6547C24.9284 46.6904 25.4334 48.031 26.451 48.7417C28.3024 50.0336 31.1657 50.0831 33.3161 49.9017C35.027 49.6859 38.4206 49.1052 38.1737 46.6607C38.1056 45.9864 37.5621 45.3575 37.0401 44.99Z" fill="#FD6D5D"/>
<path d="M41.625 14.1205C46.0713 13.9245 45.3789 17.7783 45.5178 20.8074C45.7085 24.9666 45.6421 29.069 45.4386 33.2248C45.396 34.1014 45.3125 35.1756 44.8356 35.9347C43.8077 37.5711 41.3678 37.8126 39.8349 36.7792C38.9279 36.1615 38.6963 35.3727 38.5081 34.37C38.4425 32.61 38.5166 30.3599 38.5251 28.5633C36.012 28.5113 31.3698 29.4254 31.3698 25.3865C31.3707 21.3391 35.7625 22.1013 38.5498 22.1197C38.4681 19.0983 37.6463 14.5916 41.625 14.1205Z" fill="#FD6D5D"/>
<path d="M53.1303 8.85686L49.4951 11.9284M45.5 9.52486L46.9747 5" stroke="#FD6D5D" stroke-width="2.39617" stroke-linecap="round"/>
</svg>
