<svg width="488" height="186" viewBox="0 0 488 186" fill="none" xmlns="http://www.w3.org/2000/svg">
<path d="M269.71 31.4764C277.447 31.4181 285.186 31.4008 292.923 31.425C298.746 31.4377 307.918 30.6188 312.777 34.0318C319.138 38.1406 316.633 51.4345 308.885 52.0283C296.355 52.9888 283.992 50.5369 271.294 52.202C271.064 54.3756 271.121 57.9961 271.089 60.2832C277.623 60.4349 284.16 60.3829 290.691 60.1271C294.305 60.0185 301.981 59.5947 305.146 60.1533C306.673 60.4273 308.089 61.1333 309.226 62.187C311.088 63.9238 312.18 66.3328 312.257 68.8779C312.348 71.3418 311.529 73.6038 309.86 75.4244C307.239 78.3218 303.65 78.1109 300.085 78.1507C290.497 78.2572 280.896 78.0185 271.317 78.4016C271.615 85.3859 269.446 87.5356 277.76 87.348C287.415 87.3296 297.756 86.1121 307.389 85.3282C311.387 84.9859 315.08 84.3956 318.37 87.2287C323.971 92.0538 321.958 103.034 314.514 104.694C306.858 106.403 298.072 107.017 290.17 107.238C279.736 107.53 268.38 108.537 258.087 106.914C256.35 106.623 254.377 105.283 253.077 104.139C246.626 97.793 248.946 86.5794 248.096 78.3232C248.096 77.0276 247.994 75.6976 248.028 74.404C248.32 63.6719 247.394 52.5974 248.895 41.9725C249.196 39.8353 250.652 37.3231 252.102 35.7569C256.628 30.8647 263.532 31.5782 269.71 31.4764Z" fill="#FD6E5F"/>
<path fill-rule="evenodd" clip-rule="evenodd" d="M312.205 111.92C326.458 111.348 340.972 112.553 352.877 121.641C363.417 129.689 364.779 146.124 356.457 156.295C348.28 166.288 335.163 168.59 322.798 169.741C309.341 170.261 291.466 169.41 280.744 160.138C275.922 155.948 272.976 150.006 272.561 143.633C272.106 136.75 274.387 129.966 278.907 124.754C286.971 115.527 300.57 112.697 312.205 111.92ZM334.943 134.246C329.754 130.324 318.706 129.529 312.533 130.375C307.071 130.98 301.27 132.089 297.491 136.465C294.506 139.923 296.192 144.399 299.59 146.771C305.771 151.085 315.331 151.25 322.51 150.644C328.222 149.924 339.552 147.985 338.728 139.824C338.5 137.572 336.686 135.473 334.943 134.246Z" fill="#FD6E5F"/>
<path d="M350.25 31.1822C365.095 30.5279 362.783 43.3946 363.247 53.5075C363.884 67.3939 363.662 81.0903 362.982 94.965C362.84 97.8916 362.562 101.478 360.969 104.012C357.538 109.476 349.392 110.282 344.274 106.832C341.246 104.77 340.472 102.136 339.844 98.7884C339.625 92.9124 339.872 85.4001 339.901 79.4019C331.51 79.2282 316.012 82.2802 316.012 68.7958C316.015 55.2827 330.677 57.8275 339.983 57.8889C339.71 47.8016 336.967 32.7552 350.25 31.1822Z" fill="#FD6E5F"/>
<path d="M433.082 121.586C440.475 121.501 449.55 122.776 456.783 126.404C464.032 130.041 469.469 136.069 469.428 145.462C469.386 154.775 464.212 160.607 457.234 164.098C450.277 167.578 441.501 168.752 434.123 168.793H434.122C426.949 168.815 418.025 168.008 410.78 164.903C403.517 161.79 397.897 156.338 397.494 147.088C397.275 142.078 398.408 137.998 400.493 134.691C402.577 131.389 405.597 128.883 409.118 126.994C416.151 123.222 425.237 121.884 433.071 121.587L433.082 121.586ZM442.61 138.173C439.247 137.01 434.957 136.522 430.163 137.235L430.154 137.237C425.646 137.809 420.855 138.588 417.948 142.179L417.947 142.178C416.896 143.479 416.714 144.953 417.109 146.323C417.484 147.619 418.38 148.828 419.563 149.679L419.804 149.844L420.223 150.106C422.365 151.385 425.165 152.139 428.077 152.53C431.176 152.947 434.364 152.949 436.942 152.763C442.901 152.097 446.575 150.576 448.478 148.785C449.423 147.895 449.923 146.946 450.066 146C450.21 145.053 450.003 144.072 449.467 143.109C448.387 141.172 445.985 139.34 442.61 138.173Z" fill="#FD6E5F" stroke="#FD6E5F" stroke-width="0.8"/>
<path d="M409.548 65.417C416.362 65.371 423.345 65.3873 430.145 65.5078H430.161C431.958 65.6152 433.96 65.5548 435.793 65.8408C437.658 66.132 439.448 66.7895 440.904 68.3779H440.903C443.004 70.6665 443.513 73.9736 442.734 76.8545C441.955 79.7393 439.862 82.2696 436.682 82.9434C434.419 83.4226 431.984 83.3524 429.735 83.3496C427.391 83.3468 424.87 83.4492 422.479 83.3193C422.465 83.8763 422.436 84.749 422.422 85.5674C422.412 86.1153 422.411 86.6488 422.425 87.0771C422.432 87.2913 422.443 87.4738 422.458 87.6162C422.466 87.6874 422.474 87.7454 422.482 87.7891C422.487 87.8105 422.491 87.827 422.494 87.8389C422.496 87.8473 422.498 87.852 422.498 87.8535C423.615 90.4912 425.757 92.8193 428.271 94.8223C430.782 96.8235 433.639 98.4796 436.147 99.7793H436.148C438.839 101.173 441.273 102.929 442.551 105.154C443.194 106.275 443.545 107.515 443.484 108.878C443.424 110.238 442.956 111.696 442.004 113.259C440.724 115.359 439.253 116.651 437.65 117.323C436.049 117.994 434.357 118.029 432.665 117.689C429.308 117.016 425.843 114.842 422.881 113.069L422.872 113.064C418.774 110.463 416.044 108.181 412.655 104.924C408.567 109.508 404.731 113.664 399.674 117.379H399.673C398.326 118.366 396.813 119.476 395.186 120.267C393.554 121.059 391.775 121.547 389.896 121.26C385.497 120.588 381.778 116.388 381.899 111.88C381.981 108.787 383.575 106.561 385.587 104.708C386.591 103.783 387.708 102.941 388.805 102.129C389.907 101.312 390.985 100.526 391.937 99.6973C394.534 97.4364 397.029 95.0293 398.878 92.1621C400.676 89.3789 401.127 86.6612 401.607 83.4385C399.638 83.4002 397.309 83.4895 394.958 83.4883C392.454 83.487 389.946 83.3806 387.996 82.877C384.964 82.094 383.158 79.5872 382.595 76.792C382.033 74.0032 382.691 70.8571 384.657 68.707C385.871 67.3796 387.01 66.6519 388.281 66.2314C389.534 65.8172 390.898 65.7085 392.52 65.583L392.533 65.582L393.571 65.541C398.791 65.3554 404.385 65.4522 409.548 65.417Z" fill="#FD6E5F" stroke="#FD6E5F" stroke-width="0.8"/>
<path d="M459.479 62.457C462.525 62.4477 464.713 63.2598 466.255 64.6641C467.791 66.0628 468.639 68.0042 469.093 70.1611C469.547 72.3173 469.615 74.724 469.566 77.0898C469.542 78.2742 469.488 79.4552 469.437 80.5928C469.392 81.582 469.35 82.5379 469.331 83.4424C470.276 83.4336 471.375 83.3762 472.563 83.3193C473.918 83.2545 475.379 83.1957 476.811 83.2305C478.242 83.2652 479.66 83.3937 480.931 83.71C482.199 84.0258 483.346 84.5352 484.21 85.3496C485.906 86.9486 486.843 89.2805 486.956 91.6201C487.069 93.9603 486.359 96.3515 484.707 98.0566C483.866 98.9241 482.709 99.4951 481.412 99.8721C480.114 100.25 478.649 100.441 477.164 100.53C474.4 100.697 471.457 100.515 469.37 100.496C469.438 103.935 469.386 107.491 469.37 110.919C469.372 112.856 469.19 115.163 468.041 117.054L467.883 117.344C466.182 120.28 462.37 121.469 458.876 121.184C455.273 120.89 451.729 119 451.031 115.503C450.493 112.805 450.369 109.364 450.373 105.933C450.375 104.214 450.41 102.489 450.441 100.854C450.473 99.219 450.502 97.6747 450.494 96.3066L450.451 91.9082C450.422 87.5108 450.435 83.1131 450.489 78.7158L450.49 77.417C450.487 76.9841 450.481 76.5517 450.476 76.1201C450.465 75.2589 450.456 74.4012 450.47 73.5625C450.497 71.8878 450.617 70.2634 451.02 68.7891C451.424 67.3087 452.116 65.9704 453.288 64.8809C454.459 63.7927 456.083 62.9769 458.312 62.4951L458.342 62.4893L458.372 62.4873C458.74 62.4647 459.108 62.4554 459.477 62.457V62.4561L459.478 62.457L459.479 62.4561L459.479 62.457Z" fill="#FD6E5F" stroke="#FD6E5F" stroke-width="0.8"/>
<line x1="4" y1="-4" x2="19.889" y2="-4" transform="matrix(-0.76384 0.645406 0.645406 0.76384 399.207 18.4004)" stroke="#FD6E5F" stroke-width="8" stroke-linecap="round"/>
<line x1="4" y1="-4" x2="19.889" y2="-4" transform="matrix(0.309871 -0.950778 -0.950778 -0.309871 363.055 22.7129)" stroke="#FD6E5F" stroke-width="8" stroke-linecap="round"/>
<path d="M94.5187 12.1784C114.59 11.8773 134.665 12.2965 154.706 13.4352C160.156 13.7203 172.765 14.213 177.52 15.4147C180.388 16.1154 184.13 17.5736 186.242 19.6364C190.886 24.1935 192.041 32.0471 192.032 38.1207C192.023 44.3665 191.931 50.5803 192.015 56.8278C194.96 63.1431 195 71.0536 194.96 78.3688L194.87 94.275L194.756 111.622C194.658 124.5 192.777 138.578 180.245 145.568C166.551 153.207 146.855 159.702 131.588 162.324C138.098 156.018 138.046 153.916 138.787 145.095C138.864 140.946 140.493 125.286 135.605 122.862C133.052 121.597 129.156 124.379 126.665 125.536C126.255 118.874 126.85 113.527 125.1 106.832C121.183 91.8479 111.337 88.2655 99.1476 81.275C85.1622 73.2391 71.12 65.3016 57.0226 57.4635C50.4074 53.8648 43.8179 50.2187 37.255 46.525C32.1852 43.6965 27.2429 41.3075 22.6564 37.5114C14.3737 30.6559 15.9905 17.3437 27.0607 15.2438C34.8637 13.764 44.1411 14.0222 52.2111 13.5075C65.726 12.6456 79.3247 12.4463 92.8927 12.2135L94.5187 12.1784ZM188.114 68.4987C182.598 75.3897 174.315 78.4858 165.375 81.6539C152.289 86.2914 138.628 91.1597 125.328 95.069C130.712 102.85 131.309 110.033 131.272 119.213C132.228 118.793 133.357 118.261 134.334 117.955C144.186 116.584 143.164 131.495 143.188 140.249C143.266 145.06 143.001 149.843 142.042 154.436C153.848 151.33 166.821 147.294 177.499 141.265C180.087 139.804 183.518 135.896 184.996 133.317C188.981 126.367 188.565 117.508 188.593 109.73L188.603 89.5817C188.621 86.9246 189.002 69.381 188.114 68.4987Z" fill="#FD6E5F"/>
<path d="M122.601 164.047C122.422 168.286 122.156 172.239 120.195 176.111C114.814 186.732 101.437 187.08 91.767 182.85C79.7008 177.573 67.9044 171.199 56.2709 164.99C46.85 160.053 37.5372 154.912 28.3393 149.571C16.0504 142.477 3.44482 136.47 0.704198 121.018C-0.245451 115.664 0.034324 110.359 0.0513835 104.949L0.0852193 84.8238L0.0411491 49.314C0.0388745 42.6742 0.133553 35.8836 0.166535 29.4294C0.225391 17.8091 8.526 7.33148 19.9875 5.05921C29.0413 3.26447 40.5516 2.77528 49.9253 2.25596C85.6571 0.363445 121.466 0.435647 157.19 2.47199C161.843 2.71588 166.493 2.99416 171.141 3.30683C181.613 4.02143 190.542 4.93898 197.928 13.2018C204.864 20.9623 203.928 30.3729 203.926 39.9511L205.058 62.5712L207.248 96.9575C207.26 103.862 207.387 110.116 207.119 117.38C207.025 119.947 204.08 135.172 197.587 128.881C196.822 128.139 199.28 123.566 199.514 122.604C199.764 121.882 200.169 120.066 200.358 119.677C200.828 115.723 200.621 111.874 200.652 107.921C200.705 101.322 200.449 94.9365 200.652 88.361C200.22 74.5139 198.602 60.5781 198.344 46.5013C198.069 31.4891 200.606 14.3515 180.764 10.5176C171.44 8.71605 160.932 8.48582 151.356 8.00572C125.201 6.68483 99.0039 6.40427 72.8263 7.16492C61.9048 7.5316 50.9904 8.08389 40.0876 8.82123C34.0008 9.22997 27.6489 9.45623 21.7875 10.9062C15.3655 12.4946 10.1862 19.4163 10.7221 26.0017C11.7406 38.5182 22.5919 44.3681 32.0708 49.696C37.7857 52.933 43.5294 56.1185 49.3009 59.2527L92.9103 83.7266C98.2954 86.7379 108.853 91.9644 112.919 95.9581C118.182 101.025 121.367 107.871 121.853 115.159C122.064 118.61 121.938 122.618 121.869 126.11C118.742 126.045 115.969 125.988 112.785 125.665C109.068 125.328 105.731 123.715 101.427 124.933C99.7527 125.407 97.7389 126.56 96.9824 127.724C92.6171 132.004 94.6066 138.211 94.3492 143.694C94.1042 148.917 93.9281 154.339 98.0213 158.193C103.07 163.197 113.98 164.216 120.739 164.092C121.36 164.081 121.981 164.066 122.601 164.047Z" fill="#FD6E5F"/>
<path d="M129.271 129.394C133.344 128.172 133.575 133.084 133.664 133.203C133.944 136.785 135.67 147.909 131 154.654C129.267 157.158 126.553 158.161 124.303 158.715C118.801 160.071 107.556 160.021 102.102 155.479C96.9362 151.177 99.6014 147.274 99.0593 138.941C98.7026 133.457 98.145 127.315 110.137 130.26C118.919 131.446 125.198 130.617 129.271 129.394Z" fill="#FD6E5F"/>
<path d="M110.53 137.166C114.308 136.978 117.718 138.278 119.358 141.914C120.172 143.737 120.218 145.81 119.485 147.667C118.507 150.153 116.672 151.705 114.286 152.752C112.981 152.898 111.844 152.922 110.597 152.462C108.335 151.614 106.518 149.881 105.563 147.663C103.544 142.972 106.075 138.98 110.53 137.166Z" fill="white"/>
<path d="M110.722 141.681C112.106 141.536 113.209 141.326 114.386 142.228C115.119 142.787 115.585 143.627 115.671 144.545C115.809 146.061 115.165 147.561 114.246 148.736C110.422 148.229 106.979 145.051 110.722 141.681Z" fill="#FD6E5F"/>
</svg>
