<svg width="600" height="300" viewBox="0 0 600 300" fill="none" xmlns="http://www.w3.org/2000/svg">
<rect width="600" height="300" fill="#FFFFFE"/>
<path d="M326.71 88.4764C334.447 88.4181 342.186 88.4008 349.923 88.425C355.746 88.4377 364.918 87.6188 369.777 91.0318C376.138 95.1406 373.633 108.435 365.885 109.028C353.355 109.989 340.992 107.537 328.294 109.202C328.064 111.376 328.121 114.996 328.089 117.283C334.623 117.435 341.16 117.383 347.691 117.127C351.305 117.019 358.981 116.595 362.146 117.153C363.673 117.427 365.089 118.133 366.226 119.187C368.088 120.924 369.18 123.333 369.257 125.878C369.348 128.342 368.529 130.604 366.86 132.424C364.239 135.322 360.65 135.111 357.085 135.151C347.497 135.257 337.896 135.018 328.317 135.402C328.615 142.386 326.446 144.536 334.76 144.348C344.415 144.33 354.756 143.112 364.389 142.328C368.387 141.986 372.08 141.396 375.37 144.229C380.971 149.054 378.958 160.034 371.514 161.694C363.858 163.403 355.072 164.017 347.17 164.238C336.736 164.53 325.38 165.537 315.087 163.914C313.35 163.623 311.377 162.283 310.077 161.139C303.626 154.793 305.946 143.579 305.096 135.323C305.096 134.028 304.994 132.698 305.028 131.404C305.32 120.672 304.394 109.597 305.895 98.9725C306.196 96.8353 307.652 94.3231 309.102 92.7569C313.628 87.8647 320.532 88.5782 326.71 88.4764Z" fill="#FD6E5F"/>
<path fill-rule="evenodd" clip-rule="evenodd" d="M369.205 168.92C383.458 168.348 397.972 169.553 409.877 178.641C420.417 186.689 421.779 203.124 413.457 213.295C405.28 223.288 392.163 225.59 379.798 226.741C366.341 227.261 348.466 226.41 337.744 217.138C332.922 212.948 329.976 207.006 329.561 200.633C329.106 193.75 331.387 186.966 335.907 181.754C343.971 172.527 357.57 169.697 369.205 168.92ZM391.943 191.246C386.754 187.324 375.706 186.529 369.533 187.375C364.071 187.98 358.27 189.089 354.491 193.465C351.506 196.923 353.192 201.399 356.59 203.771C362.771 208.085 372.331 208.25 379.51 207.644C385.222 206.924 396.552 204.985 395.728 196.824C395.5 194.572 393.686 192.473 391.943 191.246Z" fill="#FD6E5F"/>
<path d="M407.25 88.1822C422.095 87.5279 419.783 100.395 420.247 110.508C420.884 124.394 420.662 138.09 419.982 151.965C419.84 154.892 419.562 158.478 417.969 161.012C414.538 166.476 406.392 167.282 401.274 163.832C398.246 161.77 397.472 159.136 396.844 155.788C396.625 149.912 396.872 142.4 396.901 136.402C388.51 136.228 373.012 139.28 373.012 125.796C373.015 112.283 387.677 114.828 396.983 114.889C396.71 104.802 393.967 89.7552 407.25 88.1822Z" fill="#FD6E5F"/>
<path d="M490.082 178.586C497.475 178.501 506.55 179.776 513.783 183.404C521.032 187.041 526.469 193.069 526.428 202.462C526.386 211.775 521.212 217.607 514.234 221.098C507.277 224.578 498.501 225.752 491.123 225.793H491.122C483.949 225.815 475.025 225.008 467.78 221.903C460.517 218.79 454.897 213.338 454.494 204.088C454.275 199.078 455.408 194.998 457.493 191.691C459.577 188.389 462.597 185.883 466.118 183.994C473.151 180.222 482.237 178.884 490.071 178.587L490.082 178.586ZM499.61 195.173C496.247 194.01 491.957 193.522 487.163 194.235L487.154 194.237C482.646 194.809 477.855 195.588 474.948 199.179L474.947 199.178C473.896 200.479 473.714 201.953 474.109 203.323C474.484 204.619 475.38 205.828 476.563 206.679L476.804 206.844L477.223 207.106C479.365 208.385 482.165 209.139 485.077 209.53C488.176 209.947 491.364 209.949 493.942 209.763C499.901 209.097 503.575 207.576 505.478 205.785C506.423 204.895 506.923 203.946 507.066 203C507.21 202.053 507.003 201.072 506.467 200.109C505.387 198.172 502.985 196.34 499.61 195.173Z" fill="#FD6E5F" stroke="#FD6E5F" stroke-width="0.8"/>
<path d="M466.548 122.417C473.362 122.371 480.345 122.387 487.145 122.508H487.161C488.958 122.615 490.96 122.555 492.793 122.841C494.658 123.132 496.448 123.789 497.904 125.378H497.903C500.004 127.666 500.513 130.974 499.734 133.854C498.955 136.739 496.862 139.27 493.682 139.943C491.419 140.423 488.984 140.352 486.735 140.35C484.391 140.347 481.87 140.449 479.479 140.319C479.465 140.876 479.436 141.749 479.422 142.567C479.412 143.115 479.411 143.649 479.425 144.077C479.432 144.291 479.443 144.474 479.458 144.616C479.466 144.687 479.474 144.745 479.482 144.789C479.487 144.811 479.491 144.827 479.494 144.839C479.496 144.847 479.498 144.852 479.498 144.854C480.615 147.491 482.757 149.819 485.271 151.822C487.782 153.824 490.639 155.48 493.147 156.779H493.148C495.839 158.173 498.273 159.929 499.551 162.154C500.194 163.275 500.545 164.515 500.484 165.878C500.424 167.238 499.956 168.696 499.004 170.259C497.724 172.359 496.253 173.651 494.65 174.323C493.049 174.994 491.357 175.029 489.665 174.689C486.308 174.016 482.843 171.842 479.881 170.069L479.872 170.064C475.774 167.463 473.044 165.181 469.655 161.924C465.567 166.508 461.731 170.664 456.674 174.379H456.673C455.326 175.366 453.813 176.476 452.186 177.267C450.554 178.059 448.775 178.547 446.896 178.26C442.497 177.588 438.778 173.388 438.899 168.88C438.981 165.787 440.575 163.561 442.587 161.708C443.591 160.783 444.708 159.941 445.805 159.129C446.907 158.312 447.985 157.526 448.937 156.697C451.534 154.436 454.029 152.029 455.878 149.162C457.676 146.379 458.127 143.661 458.607 140.438C456.638 140.4 454.309 140.489 451.958 140.488C449.454 140.487 446.946 140.381 444.996 139.877C441.964 139.094 440.158 136.587 439.595 133.792C439.033 131.003 439.691 127.857 441.657 125.707C442.871 124.38 444.01 123.652 445.281 123.231C446.534 122.817 447.898 122.708 449.52 122.583L449.533 122.582L450.571 122.541C455.791 122.355 461.385 122.452 466.548 122.417Z" fill="#FD6E5F" stroke="#FD6E5F" stroke-width="0.8"/>
<path d="M516.479 119.457C519.525 119.448 521.713 120.26 523.255 121.664C524.791 123.063 525.639 125.004 526.093 127.161C526.547 129.317 526.615 131.724 526.566 134.09C526.542 135.274 526.488 136.455 526.437 137.593C526.392 138.582 526.35 139.538 526.331 140.442C527.276 140.434 528.375 140.376 529.563 140.319C530.918 140.255 532.379 140.196 533.811 140.23C535.242 140.265 536.66 140.394 537.931 140.71C539.199 141.026 540.346 141.535 541.21 142.35C542.906 143.949 543.843 146.281 543.956 148.62C544.069 150.96 543.359 153.351 541.707 155.057C540.866 155.924 539.709 156.495 538.412 156.872C537.114 157.25 535.649 157.441 534.164 157.53C531.4 157.697 528.457 157.515 526.37 157.496C526.438 160.935 526.386 164.491 526.37 167.919C526.372 169.856 526.19 172.163 525.041 174.054L524.883 174.344C523.182 177.28 519.37 178.469 515.876 178.184C512.273 177.89 508.729 176 508.031 172.503C507.493 169.805 507.369 166.364 507.373 162.933C507.375 161.214 507.41 159.489 507.441 157.854C507.473 156.219 507.502 154.675 507.494 153.307L507.451 148.908C507.422 144.511 507.435 140.113 507.489 135.716L507.49 134.417C507.487 133.984 507.481 133.552 507.476 133.12C507.465 132.259 507.456 131.401 507.47 130.562C507.497 128.888 507.617 127.263 508.02 125.789C508.424 124.309 509.116 122.97 510.288 121.881C511.459 120.793 513.083 119.977 515.312 119.495L515.342 119.489L515.372 119.487C515.74 119.465 516.108 119.455 516.477 119.457V119.456L516.478 119.457L516.479 119.456L516.479 119.457Z" fill="#FD6E5F" stroke="#FD6E5F" stroke-width="0.8"/>
<line x1="4" y1="-4" x2="19.889" y2="-4" transform="matrix(-0.76384 0.645406 0.645406 0.76384 456.207 75.4004)" stroke="#FD6E5F" stroke-width="8" stroke-linecap="round"/>
<line x1="4" y1="-4" x2="19.889" y2="-4" transform="matrix(0.309871 -0.950778 -0.950778 -0.309871 420.055 79.7148)" stroke="#FD6E5F" stroke-width="8" stroke-linecap="round"/>
<path d="M149.893 69.213L151.519 69.1783C171.59 68.8773 191.665 69.2966 211.706 70.4353C217.155 70.7204 229.765 71.2124 234.52 72.4142C237.388 73.1149 241.129 74.5731 243.242 76.6359C247.886 81.1929 249.041 89.0466 249.032 95.1204C249.023 101.366 248.931 107.58 249.014 113.828C251.96 120.143 251.999 128.054 251.96 135.369L251.87 151.275L251.756 168.621C251.658 181.499 249.777 195.578 237.245 202.568C223.55 210.207 203.855 216.702 188.588 219.324C195.098 213.018 195.046 210.915 195.787 202.095C195.864 197.946 197.493 182.285 192.605 179.861C190.052 178.596 186.156 181.379 183.665 182.536C183.255 175.874 183.85 170.527 182.1 163.832C178.183 148.848 168.337 145.266 156.147 138.275C142.162 130.239 128.12 122.302 114.023 114.464C107.407 110.865 100.818 107.219 94.2548 103.525C89.185 100.696 84.2431 98.3071 79.6566 94.511C71.3736 87.6555 72.9903 74.3434 84.0608 72.2437C91.8639 70.7639 101.141 71.0217 109.211 70.5069C122.726 69.6451 136.325 69.4458 149.893 69.213Z" fill="#FD6E5F"/>
<path d="M245.114 125.498C246.002 126.378 245.621 143.926 245.603 146.582L245.593 166.73C245.564 174.507 245.981 183.367 241.996 190.317C240.517 192.896 237.086 196.804 234.499 198.265C223.82 204.293 210.847 208.33 199.042 211.436C200.001 206.843 200.266 202.06 200.188 197.249C200.165 188.495 201.186 173.584 191.334 174.955C190.357 175.261 189.228 175.793 188.272 176.213C188.31 167.033 187.712 159.851 182.328 152.069C195.627 148.16 209.289 143.291 222.375 138.653C231.315 135.485 239.598 132.389 245.114 125.498Z" fill="white"/>
<path d="M179.601 221.047C179.422 225.286 179.156 229.239 177.195 233.111C171.814 243.732 158.437 244.08 148.767 239.85C136.701 234.573 124.904 228.199 113.271 221.99C103.85 217.053 94.5372 211.912 85.3393 206.571C73.0504 199.477 60.4448 193.47 57.7042 178.018C56.7545 172.664 57.0343 167.359 57.0514 161.949L57.0852 141.824L57.0411 106.314C57.0389 99.6742 57.1336 92.8836 57.1665 86.4294C57.2254 74.8091 65.526 64.3315 76.9875 62.0592C86.0413 60.2645 97.5516 59.7753 106.925 59.256C142.657 57.3634 178.466 57.4356 214.19 59.472C218.843 59.7159 223.493 59.9942 228.141 60.3068C238.613 61.0214 247.542 61.939 254.928 70.2018C261.864 77.9623 260.928 87.3729 260.926 96.9511L262.058 119.571L264.248 153.957C264.26 160.862 264.387 167.116 264.119 174.38C264.025 176.947 261.08 192.172 254.587 185.881C253.822 185.139 256.28 180.566 256.514 179.604C256.764 178.882 257.169 177.066 257.358 176.677C257.828 172.723 257.621 168.874 257.652 164.921C257.705 158.322 257.449 151.936 257.652 145.361C257.22 131.514 255.602 117.578 255.344 103.501C255.069 88.4891 257.606 71.3515 237.764 67.5176C228.44 65.7161 217.932 65.4858 208.356 65.0057C182.201 63.6848 156.004 63.4043 129.826 64.1649C118.905 64.5316 107.99 65.0839 97.0876 65.8212C91.0008 66.23 84.6489 66.4562 78.7875 67.9062C72.3655 69.4946 67.1862 76.4163 67.7221 83.0017C68.7406 95.5182 79.5919 101.368 89.0708 106.696C94.7857 109.933 100.529 113.119 106.301 116.253L149.91 140.727C155.295 143.738 165.853 148.964 169.919 152.958C175.182 158.025 178.367 164.871 178.853 172.159C179.064 175.61 178.938 179.618 178.869 183.11C175.742 183.045 172.969 182.988 169.785 182.665C166.068 182.328 162.731 180.715 158.427 181.933C156.753 182.407 154.739 183.56 153.982 184.724C149.617 189.004 151.607 195.211 151.349 200.694C151.104 205.917 150.928 211.339 155.021 215.193C160.07 220.197 170.98 221.216 177.739 221.092C178.36 221.081 178.981 221.066 179.601 221.047Z" fill="#FD6E5F"/>
<path d="M186.271 186.394C190.344 185.172 190.575 190.084 190.664 190.203C190.944 193.785 192.67 204.909 188 211.654C186.267 214.158 183.553 215.161 181.303 215.715C175.801 217.071 164.556 217.021 159.102 212.479C153.936 208.177 156.601 204.274 156.059 195.941C155.703 190.457 155.145 184.315 167.137 187.26C175.919 188.446 182.198 187.617 186.271 186.394Z" fill="#FD6E5F"/>
<path d="M167.53 194.166C171.308 193.978 174.718 195.278 176.358 198.914C177.172 200.737 177.218 202.81 176.485 204.667C175.507 207.153 173.672 208.705 171.286 209.752C169.981 209.898 168.844 209.922 167.597 209.462C165.335 208.614 163.518 206.881 162.563 204.663C160.544 199.972 163.075 195.98 167.53 194.166Z" fill="white"/>
<path d="M167.722 198.681C169.106 198.536 170.209 198.326 171.386 199.228C172.119 199.787 172.585 200.627 172.671 201.545C172.809 203.061 172.165 204.561 171.246 205.736C167.422 205.229 163.979 202.051 167.722 198.681Z" fill="#FD6E5F"/>
</svg>
